<svg xmlns="http://www.w3.org/2000/svg" width="390" height="337.3" viewBox="0 0 390 337.3"><title>visual-features-email-experimentation</title><path d="M61.09,312.34S-34,292.47,15,209.13-41.9,69.58,40.77,10.06c62.72-45.15,93.92,78.7,156.75,38.36s129-34.39,119,56.88,22.48,93.91,45,125.66S340.43,313,340.43,313Z" fill="#ecf4ff"/><path d="M208.89,127.9a3.67,3.67,0,0,0,1.15,2.71,3.93,3.93,0,0,0,2.56.86l80.08-1.55a4.37,4.37,0,0,0,2.53-1,3.68,3.68,0,0,0,1-2.75l-1-53.33-87.36,1.7,1,53.32Z" fill="#60d9db"/><path d="M210,130.61a3.93,3.93,0,0,0,2.56.86l80.08-1.55a4.37,4.37,0,0,0,2.53-1L251.91,93.2Z" fill="#3fa9f5"/><path d="M207.86,74.58l12.54,8.67,29.35,20.19a4.1,4.1,0,0,0,4.91-.09L283,82l12.21-9.16L282.67,64.2,255.36,45.43l-2-1.41a4.1,4.1,0,0,0-4.92.09l-2,1.5L233.7,55.14l-6.29,4.67-7.35,5.61Z" fill="#3fa9f5"/><path d="M219.9,57.41l.5,25.84,29.35,20.19a4.1,4.1,0,0,0,4.91-.09L283,82l-.65-33.49A3.65,3.65,0,0,0,278.65,45l-47.5.92Z" fill="#fff"/><path d="M231.13,54.28a2.88,2.88,0,0,1-2.85,3l-8.38.16L231,45.91l.16,8.37Z" fill="#eb7d6e"/><path d="M234.55,103.62H90a9.27,9.27,0,0,0-9.24,9.24V302.18A9.26,9.26,0,0,0,90,311.41H234.55a9.26,9.26,0,0,0,9.23-9.23V112.86A9.27,9.27,0,0,0,234.55,103.62Z" fill="#1269e0"/><rect x="93.02" y="114.94" width="138.06" height="182.86" fill="#fff"/><path d="M193.45,88.77H131.11c-5.54,0-10.16,4.62-10.16,9.7v15a10.44,10.44,0,0,0,10.45,10.44h61.3a10.44,10.44,0,0,0,10.45-10.44v-15C203.61,93.39,199,88.77,193.45,88.77Z" fill="#1269e0"/><rect x="141.27" y="145.1" width="80.35" height="10.62" fill="#e6e7ea"/><rect x="141.27" y="182.51" width="80.35" height="10.62" fill="#e6e7ea"/><rect x="141.27" y="219.91" width="80.35" height="10.62" fill="#e6e7ea"/><rect x="141.27" y="257.31" width="80.35" height="10.62" fill="#e6e7ea"/><rect x="102.48" y="249.92" width="25.4" height="25.4" fill="#60d9db"/><rect x="102.48" y="212.52" width="25.4" height="25.4" fill="#60d9db"/><rect x="102.48" y="175.12" width="25.4" height="25.4" fill="#60d9db"/><rect x="102.48" y="137.72" width="25.4" height="25.4" fill="#60d9db"/><polygon points="111.72 158.5 105.72 152.03 108.95 148.8 111.72 151.57 120.95 142.79 124.19 146.03 111.72 158.5" fill="#fff"/><polygon points="112.18 195.44 106.18 189.43 109.41 186.2 112.18 188.97 121.42 180.2 124.65 183.43 112.18 195.44" fill="#fff"/><polygon points="111.49 232.38 105.48 225.91 108.72 222.68 111.49 225.45 120.72 216.68 123.95 219.91 111.49 232.38" fill="#fff"/><polygon points="111.95 269.32 105.95 263.31 109.18 260.08 111.95 262.85 121.18 254.08 124.42 257.31 111.95 269.32" fill="#fff"/><polygon points="28.61 224.26 70.2 223.26 70.2 228.1 32.67 231.33 28.61 224.26" fill="#60d9db"/><path d="M67.53,223.29s1-.11,1.84-2.26,2.87-2.37,3-1.34a3.62,3.62,0,0,1-.82,2.15l4.61-1.25a1.12,1.12,0,0,1,1.41,1.21,7.24,7.24,0,0,1-2.42,4.86,6.72,6.72,0,0,1-5.6,1.67Z" fill="#ffcebd"/><rect x="92.9" y="215.33" width="5.04" height="9.04" transform="translate(-83.53 60.42) rotate(-24.84)" fill="#3fa9f5"/><circle cx="125.45" cy="205.96" r="27.38" transform="translate(-107.18 269.52) rotate(-73.94)" fill="#d49bf6" opacity="0.26"/><path d="M95.71,195a31.69,31.69,0,1,0,40.66-18.82A31.69,31.69,0,0,0,95.71,195Zm4,1.49A27.38,27.38,0,1,1,116,231.66,27.38,27.38,0,0,1,99.75,196.53Z" fill="#3fa9f5"/><path d="M72.88,238.72l-2.44,1.36a1.29,1.29,0,0,1-1.79-.59l-5.48-11.84a1.28,1.28,0,0,1,.71-1.74l2.62-1Z" fill="#1269e0"/><path d="M89.53,215.92a1.3,1.3,0,0,1,1.63.67l4,8.64a1.31,1.31,0,0,1-.55,1.68l-.8.42-5.12-11.07Z" fill="#1269e0"/><polygon points="93.81 227.32 72.88 238.72 66.47 224.85 88.69 216.26 93.81 227.32" fill="#3fa9f5"/><polygon points="27.57 225.35 30.15 222.66 37.87 224.13 33.72 229.27 27.57 225.35" fill="#ffcebd"/><path d="M22.24,252.66s-1,32-3.09,52.62h4.12l9.29-36.11,4.12,36.11h4.13l1-27.86-3.09-18.57Z" fill="#4d2f84"/><path d="M36.68,305.28v2.77a2.39,2.39,0,0,0,2.39,2.39h7.86a.62.62,0,0,0,.32-1.14l-6.44-4Z" fill="#003779"/><path d="M19.15,305.28v2.77a2.38,2.38,0,0,0,2.38,2.39h7.86a.62.62,0,0,0,.32-1.14l-6.44-4Z" fill="#003779"/><path d="M30.49,224.48l21.35,10.28,18.31.42,3.12,4.6L54.66,241c-3.83-.21-4.56-.39-7.06-1.42l-6.67-2.23s-2.71,16.45-1.6,21.49c0,0-15.8,9.82-17.46-2.49-1-7.42,1.39-19.47,4.55-29.93A3.06,3.06,0,0,1,30.49,224.48Z" fill="#60d9db"/><path d="M39.88,223.69s-.45,1.59-5,1.11c-3.24-.34-5.7-1.91-6.14-3.93-.89-4,2-10,5.27-9.61s4.25.12,5.93,2.92a45.5,45.5,0,0,0,2.61,3.92.88.88,0,0,1-.16,1.21l-1.12.91S40.89,223.46,39.88,223.69Z" fill="#ffcebd"/><path d="M70,235s1,0,2-1.91,2.93-1.9,2.92-.94a3.39,3.39,0,0,1-1,1.93l4.44-.68a1,1,0,0,1,1.18,1.28A6.86,6.86,0,0,1,76.76,239a6.31,6.31,0,0,1-5.4,1Z" fill="#ffcebd"/><polygon points="39.5 248.15 36.7 234.76 40.94 237.38 39.5 248.15" fill="#225879" opacity="0.42"/><polygon points="30.04 278.97 31.46 265.23 32.47 269.27 30.04 278.97" opacity="0.35"/><path d="M38.86,214l.3-.1a3.38,3.38,0,0,0-.62-6.55h0c-3.3-.5-9.73-1.24-11.42,2.41a.52.52,0,0,1-.3.28,3.81,3.81,0,0,0-2.61,3.56c-.18,3.8,1.1,5.33,4.12,7.9a.55.55,0,0,0,.91-.47c-.15-1.43-.16-3.62.81-4.85.82-1,1.42-.3,1.8.61a.55.55,0,0,0,1,.09c.67-1,2.25-2.33,6-2.87Z" fill="#333542"/><path d="M165.66,337.3h-113c-.35,0-.63-.53-.63-1.19s.28-1.19.63-1.19h113c.34,0,.63.53.63,1.19S166,337.3,165.66,337.3Z" fill="#003779"/><path d="M310.42,337.3h-113c-.35,0-.63-.53-.63-1.19s.28-1.19.63-1.19h113c.35,0,.63.53.63,1.19S310.77,337.3,310.42,337.3Z" fill="#003779"/><path d="M353.07,276.22c-1.73-.26-3.59.74-5.12,1.41-.16.07-.51.26-.86.45.61-.7,1.22-1.4,1.84-2.08.41-.46.82-.92,1.24-1.37.45.07,1.38-.09,2.45,0,1.26.14,1.79.63,2.94-.33s1.55-2.47-.17-2.73c-1.46-.22-2.81.73-4,1.69a26.2,26.2,0,0,0,3.38-4.57c4.53-2.3,6.69-9,6-13.74a2.12,2.12,0,0,0-.48-1.25c-.7-.7-1.93-.21-2.59.53a6.67,6.67,0,0,0-1.47,3.81c-.15,1.38-.06,2.77-.13,4.15a15.58,15.58,0,0,1-.59,3.32l0,0a18.82,18.82,0,0,1-3,4.84,15.38,15.38,0,0,0,.74-3.33,8.15,8.15,0,0,0-.92-5.16,1.14,1.14,0,0,0-.72-.63c-.42-.05-.76.31-1,.66a5.9,5.9,0,0,0-.84,4.2c.34,1.84,1.32,3.53,1.73,5.36h.07c-.75.85-1.53,1.67-2.31,2.49a12.61,12.61,0,0,0,.13-4.18,3.4,3.4,0,0,0-.83-1.81,1.61,1.61,0,0,0-1.84-.4,1.67,1.67,0,0,0-.74.89,5.35,5.35,0,0,0,.36,3.67c.42,1.18.79,2.41,1.26,3.58l-.28.3c-1.33,1.45-2.64,2.91-3.93,4.4a20.78,20.78,0,0,0,1-3.17,12.61,12.61,0,0,0-.11-6.57,4.58,4.58,0,0,0-1.33-2.23.82.82,0,0,0-1.39.11,4.89,4.89,0,0,0-.64,3.48,36.55,36.55,0,0,0,1.49,5.49A10.65,10.65,0,0,1,343,281q-2,2.32-3.88,4.72a22.19,22.19,0,0,0,1.52-6.2c.22-1.74,0-3.76-1.34-4.85a1.62,1.62,0,0,0-.68-.34c-.79-.16-1.5.55-1.77,1.31a4.88,4.88,0,0,0,.06,3c.28,1,.72,1.92,1,2.9a12.76,12.76,0,0,1,.36,5.21q-1.44,1.88-2.81,3.81a18.15,18.15,0,0,0,.4-2.56,12.48,12.48,0,0,0-.67-5.25c-.21-.56-.53-1.18-1.12-1.31a1.62,1.62,0,0,0-1.4.55,4.28,4.28,0,0,0-1.22,3.67,8.36,8.36,0,0,0,.93,2.43l1.21,2.4a6.06,6.06,0,0,1,.6,1.91c-1,1.45-1.92,2.91-2.82,4.41a15.86,15.86,0,0,0,.42-2.14,8.27,8.27,0,0,0-.74-4.76,2.09,2.09,0,0,0-1.18-1.14,1.62,1.62,0,0,0-1.8,1.19,3.39,3.39,0,0,0,.31,2.31,8.14,8.14,0,0,0,1.16,1.89,7.12,7.12,0,0,1,.94,1.26,4.79,4.79,0,0,1,.32,1.92c0,.14,0,.27,0,.41-.7,1.17-1.38,2.37-2,3.59a8.25,8.25,0,0,0-1.1-4.24c-.44-.75-1.21-1.5-2.05-1.27a1.29,1.29,0,0,0-.66.44,2.33,2.33,0,0,0,.21,2.75c.59.8,1.42,1.37,2.06,2.13a14.12,14.12,0,0,1,.81,1.6,39.13,39.13,0,0,0-2.5,6,.48.48,0,0,0,.9.34c.76-1.47,1.49-2.95,2.23-4.42a42.94,42.94,0,0,0,4.35,1.11,2,2,0,0,0,2.15-.56,1.61,1.61,0,0,0-.44-2,3.13,3.13,0,0,0-2.17-.58,11,11,0,0,0-3.36,1c.77-1.5,1.55-3,2.39-4.48a6.11,6.11,0,0,1,1.48,0c.79.14,1.51.51,2.3.64a2,2,0,0,0,2.1-.77,1.74,1.74,0,0,0-1.06-2.28,3.83,3.83,0,0,0-2.77.26c-.28.11-.67.27-1.07.46l.21-.35c.39-.65.8-1.28,1.21-1.92a22.72,22.72,0,0,0,3.58-.08,6.74,6.74,0,0,0,3-.32,2,2,0,0,0,1.09-2.53,2.32,2.32,0,0,0-2.51-.75,11.36,11.36,0,0,0-4,1.84c.9-1.33,1.83-2.64,2.77-3.94,1.79-.21,4.11,1.17,6,.48.77-.28,1.84-1.17,1.45-2.16-.3-.78-1.64-.84-2.34-.9a7.39,7.39,0,0,0-3.9.9c.38-.51.76-1,1.15-1.51s1-1.28,1.51-1.92a14.27,14.27,0,0,1,3,.12c1.41.23,2.9.78,4-.52s1.52-3.65-.66-3.52a10.9,10.9,0,0,0-4.62,1.8q1.5-1.82,3-3.58a13,13,0,0,1,3.54.47c1.24.43,2.74,1.61,3.89.55A1.89,1.89,0,0,0,353.07,276.22Z" fill="#3fa9f5"/><path d="M335.63,270.79c-1.67.5-2.93,2.2-4,3.46-.11.13-.34.45-.58.77.25-.89.51-1.78.77-2.66.17-.59.36-1.18.54-1.77.43-.13,1.2-.67,2.22-1,1.2-.42,1.89-.2,2.53-1.56s.33-2.9-1.33-2.4c-1.42.43-2.23,1.87-2.91,3.25a26,26,0,0,0,1.09-5.57c3.12-4,2.18-11-.42-15a2.1,2.1,0,0,0-1-.92c-.93-.33-1.84.64-2.11,1.59a6.7,6.7,0,0,0,.3,4.07c.45,1.31,1.13,2.53,1.66,3.81a16.21,16.21,0,0,1,.89,3.25s0,0,0,.06a18.82,18.82,0,0,1-.61,5.64,15.18,15.18,0,0,0-.76-3.33,8.16,8.16,0,0,0-3-4.26,1.1,1.1,0,0,0-.92-.26c-.4.13-.55.6-.61,1a5.92,5.92,0,0,0,1,4.16c1.1,1.52,2.71,2.63,3.86,4.1l.06,0c-.31,1.08-.67,2.17-1,3.24a12.37,12.37,0,0,0-1.67-3.84,3.49,3.49,0,0,0-1.52-1.28,1.62,1.62,0,0,0-1.83.43,1.69,1.69,0,0,0-.29,1.12,5.29,5.29,0,0,0,1.9,3.16c.88.89,1.74,1.84,2.66,2.7l-.12.39c-.58,1.88-1.14,3.76-1.66,5.65a22.73,22.73,0,0,0-.47-3.28,12.69,12.69,0,0,0-2.91-5.89,4.59,4.59,0,0,0-2.16-1.44,1,1,0,0,0-1,.17,1.06,1.06,0,0,0-.22.52,4.92,4.92,0,0,0,.91,3.42,37,37,0,0,0,3.7,4.32,10.55,10.55,0,0,1,2,2.82c-.54,2-1,3.94-1.49,5.92a22.51,22.51,0,0,0-1.28-6.25c-.55-1.67-1.58-3.42-3.29-3.81a1.48,1.48,0,0,0-1.8,1.93,4.93,4.93,0,0,0,1.35,2.7c.68.77,1.47,1.43,2.17,2.18a12.72,12.72,0,0,1,2.56,4.56c-.33,1.54-.64,3.08-.91,4.64a16.54,16.54,0,0,0-.74-2.49,12.39,12.39,0,0,0-2.85-4.45,1.85,1.85,0,0,0-1.57-.71,1.61,1.61,0,0,0-1,1.1,4.28,4.28,0,0,0,.46,3.84,8.47,8.47,0,0,0,1.88,1.8l2.12,1.65a5.58,5.58,0,0,1,1.36,1.47c-.26,1.72-.49,3.45-.66,5.19a14.83,14.83,0,0,0-.54-2.11,8.19,8.19,0,0,0-2.7-4,2.07,2.07,0,0,0-1.55-.52,1.6,1.6,0,0,0-1.12,1.84,3.39,3.39,0,0,0,1.26,2,8.49,8.49,0,0,0,1.86,1.21,5.79,5.79,0,0,1,1.39.74,4.51,4.51,0,0,1,1.11,1.6c.06.12.12.24.19.36-.13,1.36-.24,2.73-.31,4.11a8.25,8.25,0,0,0-2.81-3.35c-.71-.49-1.73-.84-2.39-.28a1.3,1.3,0,0,0-.41.69,2.33,2.33,0,0,0,1.37,2.39c.87.47,1.87.63,2.77,1,.52.23,1,.82,1.41,1.1a40.29,40.29,0,0,0,.32,6.51.48.48,0,0,0,1-.08c.06-1.66.09-3.31.13-4.95a44.1,44.1,0,0,0,4.4-.86,2,2,0,0,0,1.7-1.43,1.62,1.62,0,0,0-1.27-1.66,3.2,3.2,0,0,0-2.21.41,10.91,10.91,0,0,0-2.59,2.36c0-1.69.11-3.38.23-5.07a6.4,6.4,0,0,1,1.35-.63c.77-.2,1.58-.18,2.35-.41a2,2,0,0,0,1.57-1.59,1.74,1.74,0,0,0-1.94-1.6,3.79,3.79,0,0,0-2.39,1.42c-.2.22-.49.53-.77.88,0-.14,0-.28,0-.42.08-.75.17-1.5.27-2.24a23.38,23.38,0,0,0,3.2-1.61,6.66,6.66,0,0,0,2.61-1.6,2,2,0,0,0-.09-2.75,2.35,2.35,0,0,0-2.6.4,11.15,11.15,0,0,0-2.81,3.37c.24-1.59.51-3.17.81-4.75,1.53-1,4.22-.7,5.66-2.15.59-.58,1.17-1.85.39-2.57-.61-.58-1.84-.06-2.5.18a7.42,7.42,0,0,0-3.14,2.49l.39-1.85.54-2.38a14,14,0,0,1,2.73-1.17c1.38-.4,3-.53,3.43-2.19s-.2-3.95-2.11-2.9a10.89,10.89,0,0,0-3.4,3.6q.57-2.26,1.2-4.53a13.19,13.19,0,0,1,3.4-1.09c1.3-.15,3.16.28,3.75-1.17A1.88,1.88,0,0,0,335.63,270.79Z" fill="#3fa9f5"/><path d="M307.84,311.91s-6.79-10.58-2.93-25.63c0,0,11.11,2.47,14.82,25.63Z" fill="#3fa9f5"/><path d="M312.9,311.91S310,298,308.38,295.24c0,0,4.88,8.8,5.6,16.67Z" fill="#fff"/><path d="M326.62,312.11s6.79-10.58,2.93-25.63c0,0-11.11,2.47-14.82,25.63Z" fill="#3fa9f5"/><path d="M321.55,312.11s2.91-13.89,4.53-16.67c0,0-4.88,8.8-5.61,16.67Z" fill="#fff"/><path d="M339.46,312.11s8.76-13.63,3.78-33c0,0-14.32,3.18-19.1,33Z" fill="#3fa9f5"/><path d="M332.94,312.11s3.74-17.91,5.82-21.49c0,0-6.28,11.34-7.22,21.49Z" fill="#fff"/><path d="M292.4,312.11s-8.76-13.63-3.79-33c0,0,14.33,3.18,19.11,33Z" fill="#3fa9f5"/><path d="M298.92,312.11s-3.74-17.91-5.83-21.49c0,0,6.29,11.34,7.22,21.49Z" fill="#fff"/><path d="M278.52,237.84l-14.17-1.33s-3.41-1.7-6.05,0-2.84,3-2.08,3.22,3-2.08,4.16-1.89c.44.07.51.38.42.72a.66.66,0,0,0,.79.81l2.38-.59,6,2.16,6.8.87Z" fill="#ffcebd"/><path d="M278.54,223.44s-6.92,10.52-3.89,17.33,4.53,5.48,4.53,5.48,7.94.19,9.64.19-.37-11.72-1.51-13.05S278.54,223.44,278.54,223.44Z" fill="#ef7483"/><path d="M277.11,221.86s-5.68.18-4.89-7.67a3.38,3.38,0,0,1,1.81-2.71,3.46,3.46,0,0,1,3.08,0c3,1.32,4.72,2.83,4.53,5.1S277.11,221.86,277.11,221.86Z" fill="#ffcebd"/><path d="M274.08,212.79s-2.83-.19-.38-4.72c1.66-3.07,9.26.18,9.64,5.1s1.14,8.69,4.16,10.21,4.35,11,6.05,11.15-6.62,3.4-8.88,3.4.28-3.5-2.93-8.6-5.11-9.64-4-11.34c.37-.56.74-1.13,1.07-1.66a1.51,1.51,0,0,0-1-2.29A15.66,15.66,0,0,1,274.08,212.79Z" fill="#333542"/><path d="M276.92,306.36h3s4.73-25.14,4.16-34.78,1.55-25.07,1.55-25.07l-7-.07s-2.93,12.38-1.8,20.13S276.92,306.36,276.92,306.36Z" fill="#003779"/><path d="M285.71,306.45h3s2.27-10.77,1.13-19.09-1.32-14.93.38-21.36,3.4-14.36-1.51-19.66H278.52s.29,16.92,3.31,28.07S285.71,306.45,285.71,306.45Z" fill="#003779"/><path d="M277,306.26l-5.65,4.09a.46.46,0,0,0,.27.83h7.77a.46.46,0,0,0,.46-.44l.17-4.48Z" fill="#0d1a59"/><path d="M286.05,306.17l-5,3.88a.45.45,0,0,0,.24.8h6.88a.43.43,0,0,0,.41-.42l.15-4.26Z" fill="#0d1a59"/><path d="M281.74,229.33s-2.46-1.32-3.22,3.21-1.7,8.32-1.7,8.32l-24.19.95s-2,1,6.42,2.08c7.09.87,16.3.31,19.37.08a2,2,0,0,0,1.58-1C281.48,240.25,285.31,232.43,281.74,229.33Z" fill="#ffcebd"/><path d="M265.29,241.33h0a.47.47,0,0,0-.47-.47H251.49l-6.77-11.72a.51.51,0,0,0-.63-.22h0a.5.5,0,0,0-.24.72l7.08,12.17h13.89A.48.48,0,0,0,265.29,241.33Z" fill="#f19d8d"/><path d="M387.8,313.4H2.2c-1.21,0-2.2-.53-2.2-1.19S1,311,2.2,311H387.8c1.21,0,2.2.54,2.2,1.2S389,313.4,387.8,313.4Z" fill="#003779"/><circle cx="200.29" cy="270.85" r="36" fill="#fff"/><circle cx="200.52" cy="270.17" r="21.7" fill="#60d9db"/><path d="M177.37,310.69a1.41,1.41,0,0,1-1-.43,1.43,1.43,0,0,1,0-2l5.69-5.69a1.44,1.44,0,1,1,2,2l-5.69,5.69A1.41,1.41,0,0,1,177.37,310.69Z" fill="#ccc"/><path d="M223.67,310.69a1.41,1.41,0,0,1-1-.43l-5.73-5.73a1.45,1.45,0,0,1,2-2l5.74,5.74a1.45,1.45,0,0,1-1,2.47Z" fill="#ccc"/><path d="M226.7,244.44a1.41,1.41,0,0,1-1-.43,1.43,1.43,0,0,1,0-2l4.34-4.34a1.45,1.45,0,1,1,2,2L227.73,244A1.45,1.45,0,0,1,226.7,244.44Z" fill="#f3c07e"/><path d="M174.34,244.44a1.41,1.41,0,0,1-1-.43L169,239.67a1.44,1.44,0,1,1,2-2l4.34,4.34a1.43,1.43,0,0,1,0,2A1.41,1.41,0,0,1,174.34,244.44Z" fill="#f3c07e"/><path d="M200.52,310.69A40.52,40.52,0,1,1,241,270.17,40.56,40.56,0,0,1,200.52,310.69Zm0-75.24a34.73,34.73,0,1,0,34.73,34.72A34.76,34.76,0,0,0,200.52,235.45Z" fill="#60d9db"/><path d="M200.52,236.72a1.44,1.44,0,0,0-1.45,1.44v1.45a1.45,1.45,0,1,0,2.9,0v-1.45A1.44,1.44,0,0,0,200.52,236.72Z" fill="#e6e7ea"/><path d="M200.52,298.94a1.44,1.44,0,0,0-1.45,1.44v1.45a1.45,1.45,0,1,0,2.9,0v-1.45A1.44,1.44,0,0,0,200.52,298.94Z" fill="#e6e7ea"/><path d="M232.35,268.55h-1.44a1.45,1.45,0,1,0,0,2.89h1.44a1.45,1.45,0,1,0,0-2.89Z" fill="#e6e7ea"/><path d="M170.14,268.55h-1.45a1.45,1.45,0,1,0,0,2.89h1.45a1.45,1.45,0,0,0,0-2.89Z" fill="#e6e7ea"/><path d="M222,246.46l-1,1a1.45,1.45,0,0,0,1,2.47,1.41,1.41,0,0,0,1-.43l1-1a1.45,1.45,0,0,0-2-2Z" fill="#e6e7ea"/><path d="M178,290.46l-1,1a1.45,1.45,0,0,0,1,2.47,1.48,1.48,0,0,0,1-.42l1-1a1.45,1.45,0,0,0-2.05-2.05Z" fill="#e6e7ea"/><path d="M223,290.46a1.44,1.44,0,0,0-2.05,0,1.46,1.46,0,0,0,0,2.05l1,1a1.45,1.45,0,1,0,2-2Z" fill="#e6e7ea"/><path d="M179,246.46a1.46,1.46,0,0,0-2,0,1.44,1.44,0,0,0,0,2l1,1a1.44,1.44,0,0,0,2.05,0,1.45,1.45,0,0,0,0-2Z" fill="#e6e7ea"/><path d="M183.16,270.17a1.45,1.45,0,0,0,1.45,1.45h10.33a5.78,5.78,0,1,0,7-7V249.92a1.45,1.45,0,1,0-2.89,0v14.67a5.78,5.78,0,0,0-4.14,4.14H184.61A1.44,1.44,0,0,0,183.16,270.17Zm14.47,0a2.9,2.9,0,1,1,2.89,2.9A2.9,2.9,0,0,1,197.63,270.17Z" fill="#fff"/><path d="M238,231a10.31,10.31,0,0,1,0,14.57L223.45,231A10.31,10.31,0,0,1,238,231Z" fill="#60d9db"/><path d="M163,231a10.31,10.31,0,0,0,0,14.57L177.6,231A10.32,10.32,0,0,0,163,231Z" fill="#60d9db"/></svg>